

<svg width="100%" height="100%" viewBox="0 0 1000 688" version="1.1" xmlns="http://www.w3.org/2000/svg" xmlns:xlink="http://www.w3.org/1999/xlink" xml:space="preserve" style="fill-rule:evenodd;clip-rule:evenodd;stroke-linejoin:round;stroke-miterlimit:2">
    <rect id="Page-1" x="0" y="0" width="1000" height="687.588" style="fill:none"></rect>
    <g id="Page-11">
        <g id="Layer-1">
            <g transform="matrix(0,-1,-1,0,522.87,110.067)">
                <path d="M-233.724,-233.718C-362.804,-233.718 -467.448,-129.079 -467.448,-0.002C-467.448,129.077 -362.804,233.724 -233.724,233.724C-104.638,233.724 0.006,129.077 0.006,-0.002C0.006,-129.079 -104.638,-233.718 -233.724,-233.718" style="fill:white;fill-rule:nonzero"></path>
            </g>
            <g transform="matrix(1,0,0,1,632.468,231.656)">
                <path d="M0,18.579C0,18.579 12.741,14.346 18.483,15.741L20.213,11.208C15.279,8.808 2.901,11.695 2.901,11.695C2.901,11.695 -2.988,0.944 -7.216,0L-9.293,5.129C-3.4,8.514 0,18.579 0,18.579" style="fill:rgb(199,160,121);fill-rule:nonzero"></path>
            </g>
            <g transform="matrix(1,0,0,1,584.28,549.007)">
                <path d="M0,3.049C0,3.049 -5.192,-4.125 -8.448,-4.792L-9.976,-1.004C-5.409,1.852 -2.499,7.841 -2.499,7.841C-2.499,7.841 8.956,5.472 13.505,6.813L15.138,3.109C11.259,1.016 0,3.049 0,3.049" style="fill:rgb(199,160,121);fill-rule:nonzero"></path>
            </g>
            <g transform="matrix(1,0,0,1,607.544,492.184)">
                <path d="M0,2.947C0,2.947 -9.999,-6.854 -14.175,-6.638L-14.746,-1.401C-8.244,0.59 -1.474,9.801 -1.474,9.801C-1.474,9.801 10.394,1.486 16.277,1.582L17.137,-3.614C11.779,-4.846 0,2.947 0,2.947" style="fill:rgb(199,160,121);fill-rule:nonzero"></path>
            </g>
            <g transform="matrix(1,0,0,1,641.156,216.496)">
                <path d="M0,17.053C0,17.053 12.688,15.051 18.521,15.826L21.153,10.565C15.997,8.707 2.845,10.782 2.845,10.782C2.845,10.782 -2.771,0.499 -7.05,0L-9.134,5.094C-2.946,7.865 0,17.053 0,17.053" style="fill:rgb(199,160,121);fill-rule:nonzero"></path>
            </g>
            <g transform="matrix(1,0,0,1,651.394,201.434)">
                <path d="M0,15.628C0,15.628 10.012,15.129 15.738,16.253L18.722,11.131C13.742,8.954 3.409,9.273 3.409,9.273C3.409,9.273 -3.259,0.945 -7.149,-0.625L-9.536,3.945C-3.578,7.042 0,15.628 0,15.628" style="fill:rgb(199,160,121);fill-rule:nonzero"></path>
            </g>
            <g transform="matrix(1,0,0,1,660.51,186.311)">
                <path d="M0,15.766C0,15.766 9.578,14.756 15.186,16.271L18.598,10.968C13.814,8.515 3.833,9.645 3.833,9.645C3.833,9.645 -1.488,0.524 -5.622,-0.505L-8.115,3.674C-2.421,7.156 0,15.766 0,15.766" style="fill:rgb(199,160,121);fill-rule:nonzero"></path>
            </g>
            <g transform="matrix(1,0,0,1,670.046,175.579)">
                <path d="M0,12.416C0,12.416 8.447,13.107 13.908,14.972L16.995,10.876C12.384,8.075 3.153,7.593 3.153,7.593C3.153,7.593 -1.594,-1.251 -5.64,-2.556L-8.234,1.268C-2.793,5.08 0,12.416 0,12.416" style="fill:rgb(199,160,121);fill-rule:nonzero"></path>
            </g>
            <g transform="matrix(1,0,0,1,578.086,560.221)">
                <path d="M0,2.923C0,2.923 -5.261,-4.142 -8.273,-4.816L-9.678,-1.046C-5.45,1.817 -2.314,7.739 -2.314,7.739C-2.314,7.739 7.898,5.43 12.132,6.783L13.626,3.067C10.054,0.98 0,2.923 0,2.923" style="fill:rgb(199,160,121);fill-rule:nonzero"></path>
            </g>
            <g transform="matrix(1,0,0,1,590.437,536.284)">
                <path d="M0,3.518C0,3.518 -7.165,-5.55 -10.953,-6.079L-12.352,-1.316C-6.846,1.744 -2.411,9.597 -2.411,9.597C-2.411,9.597 9.934,5.129 15.261,6.368L16.797,1.671C12.17,-0.493 0,3.518 0,3.518" style="fill:rgb(199,160,121);fill-rule:nonzero"></path>
            </g>
            <g transform="matrix(1,0,0,1,597.055,523.285)">
                <path d="M0,3.799C0,3.799 -8.915,-6.646 -13.075,-6.765L-14.044,-1.565C-7.781,1.07 -1.939,10.564 -1.939,10.564C-1.939,10.564 10.619,3.029 16.476,3.685L17.639,-1.462C12.435,-3.212 0,3.799 0,3.799" style="fill:rgb(199,160,121);fill-rule:nonzero"></path>
            </g>
            <g transform="matrix(1,0,0,1,602.761,507.295)">
                <path d="M0,3.41C0,3.41 -9.414,-6.782 -13.571,-6.752L-14.371,-1.539C-8.006,0.8 -1.711,10.192 -1.711,10.192C-1.711,10.192 10.547,2.315 16.418,2.724L17.432,-2.471C12.164,-3.98 0,3.41 0,3.41" style="fill:rgb(199,160,121);fill-rule:nonzero"></path>
            </g>
            <g transform="matrix(1,0,0,1,419.633,156.192)">
                <path d="M0,19.164L4.323,15.472C0.701,13.404 -3.135,1.425 -3.135,1.425C-3.135,1.425 -11.515,1.173 -15.342,0L-20.858,3.957L-7.651,5.502C-7.651,5.502 -4.576,16.855 0,19.164" style="fill:rgb(199,160,121);fill-rule:nonzero"></path>
            </g>
            <g transform="matrix(1,0,0,1,434.551,144.846)">
                <path d="M0,19.939L4.537,16.5C-0.06,14.184 -3.157,2.724 -3.157,2.724C-3.157,2.724 -11.767,1.876 -14.978,0L-19.434,3.428C-16.509,5.707 -7.51,6.638 -7.51,6.638C-7.51,6.638 -4.753,17.937 0,19.939" style="fill:rgb(199,160,121);fill-rule:nonzero"></path>
            </g>
            <g transform="matrix(1,0,0,1,405.352,167.816)">
                <path d="M0,19.53C1.191,18.34 2.585,17.01 3.947,15.826C-0.241,10.595 -1.702,0.703 -1.702,0.703C-1.702,0.703 -11.484,0.282 -16.178,0C-17.618,1.292 -19.653,3.812 -19.653,3.812L-6.78,5.321C-6.78,5.321 -4.197,14.774 0,19.53" style="fill:rgb(199,160,121);fill-rule:nonzero"></path>
            </g>
            <g transform="matrix(1,0,0,1,393.453,180.058)">
                <path d="M0,20.558C1.169,19.374 2.531,17.859 3.917,16.662C-0.283,11.406 -2.339,0.715 -2.339,0.715C-2.339,0.715 -11.743,0.307 -16.392,0C-17.876,1.305 -19.139,2.375 -19.882,3.836L-7.264,5.225C-7.264,5.225 -4.222,15.826 0,20.558" style="fill:rgb(199,160,121);fill-rule:nonzero"></path>
            </g>
            <g transform="matrix(1,0,0,1,448.997,135.694)">
                <path d="M0,18.478L4.841,15.291C-0.812,14.13 -3.656,1.762 -3.656,1.762C-3.656,1.762 -11.241,1.672 -13.775,0C-15.724,1.052 -17.769,1.78 -19.725,3.048C-16.848,4.432 -8.36,5.087 -8.36,5.087C-8.36,5.087 -4.329,16.554 0,18.478" style="fill:rgb(199,160,121);fill-rule:nonzero"></path>
            </g>
            <g transform="matrix(1,0,0,1,384.316,200.046)">
                <path d="M0,10.516C-3.954,6.204 -7.438,-4.829 -7.438,-4.829C-7.438,-4.829 -16.322,-4.39 -21.019,-4.505L-25.146,-0.127C-20.486,0.643 -11.999,0.228 -11.999,0.228C-11.999,0.228 -9.104,9.806 -3.707,15.345L0,10.516Z" style="fill:rgb(199,160,121);fill-rule:nonzero"></path>
            </g>
            <g transform="matrix(1,0,0,1,462.852,127.722)">
                <path d="M0,15.104C1.235,14.196 4.476,12.447 4.476,12.447C-0.704,10.438 -1.056,1.431 -1.056,1.431C-1.056,1.431 -12.433,1.244 -15.084,0C-16.704,1.07 -18.439,1.647 -19.99,2.964C-17.82,4.804 -6.299,5.321 -6.299,5.321C-6.299,5.321 -5.1,14.028 0,15.104" style="fill:rgb(199,160,121);fill-rule:nonzero"></path>
            </g>
            <g transform="matrix(1,0,0,1,352.417,231.343)">
                <path d="M0,-20.354C-1.332,-18.544 -2.336,-17.396 -3.614,-15.598L8.472,-15.015C8.472,-15.015 11.034,-3.902 15.11,0.048L18.508,-4.979C15.054,-9.044 12.844,-20.402 12.844,-20.402C12.844,-20.402 4.062,-20.035 0,-20.354" style="fill:rgb(199,160,121);fill-rule:nonzero"></path>
            </g>
            <g transform="matrix(1,0,0,1,352.276,249.683)">
                <path d="M0,-21.827C0,-21.827 -7.687,-20.763 -11.695,-21.731L-15.123,-17.498C-11.954,-16.349 -3.512,-16.332 -3.512,-16.332C-3.512,-16.332 0.872,-1.786 4.323,0L7.459,-5.454C3.027,-9.104 0,-21.827 0,-21.827" style="fill:rgb(199,160,121);fill-rule:nonzero"></path>
            </g>
            <g transform="matrix(1,0,0,1,330.181,266.47)">
                <path d="M0,-20.329L-3.145,-15.387L8.175,-15.398C8.175,-15.398 10.904,-3.493 15.826,0.283L18.793,-4.972C15.525,-8.454 12.128,-20.612 12.128,-20.612L0,-20.329Z" style="fill:rgb(199,160,121);fill-rule:nonzero"></path>
            </g>
            <g transform="matrix(1,0,0,1,320.193,284.197)">
                <path d="M0,-18.827L-2.342,-13.559L8.716,-14.149C8.716,-14.149 13.114,-3.253 17.209,0.559C18.307,-1.251 18.851,-3.722 19.837,-5.496C15,-10.186 11.915,-19.386 11.915,-19.386L0,-18.827Z" style="fill:rgb(199,160,121);fill-rule:nonzero"></path>
            </g>
            <g transform="matrix(1,0,0,1,470.238,130.247)">
                <path d="M0,-5.682C0.531,-1.004 5.3,3.824 5.3,3.824L9.358,1.1C5.697,-1.978 4.218,-8.478 4.218,-8.478L-3.145,-9.302C-6.84,-9.506 -14.678,-6.777 -14.678,-6.777C-11.004,-6.903 0,-5.682 0,-5.682" style="fill:rgb(199,160,121);fill-rule:nonzero"></path>
            </g>
            <g transform="matrix(1,0,0,1,892.556,323.16)">
                <path d="M0,41.267L-0.526,44.117C-0.926,46.198 -23.989,50.305 -47.046,55.091C-46.315,48.152 -45.837,41.141 -45.549,34.088C-21.905,37.809 0,41.267 0,41.267M-195.38,-4.822L-203.854,64.814C-204.544,69.083 -206.043,74.411 -209.675,75.457L-232.717,77.886L-224.245,8.268C-223.602,3.927 -222.047,-1.371 -218.454,-2.411L-195.38,-4.822ZM-369.695,259.82C-441.562,259.814 -505.979,228.083 -549.826,177.9C-547.198,177.635 -545.238,177.418 -544.221,177.316C-543.659,177.268 -543.344,176.848 -543.25,176.096C-541.221,159.458 -517.689,-33.42 -517.644,-33.799C-517.635,-34.208 -518.119,-34.364 -518.48,-34.297C-518.829,-34.243 -531.282,-31.983 -542.922,-29.782C-549.534,-28.507 -556.061,-26.18 -562.333,-23.03C-562.266,-23.3 -562.204,-23.565 -562.143,-23.769C-566.996,-28.393 -567.882,-38.796 -567.882,-38.796L-581.21,-36.878L-582.806,-31.742L-572.197,-33.281C-572.197,-33.281 -571.565,-26.084 -567.371,-20.269C-585.356,-9.681 -600.665,7.799 -608.705,27.534C-608.771,25.23 -608.879,22.94 -608.879,20.619C-608.879,-111.492 -501.791,-218.553 -369.695,-218.577C-271.176,-218.577 -186.604,-159.006 -149.949,-73.929C-187.193,-70.003 -232.053,-65.259 -232.053,-65.259C-237.684,-64.669 -243.197,-63.388 -248.567,-61.639L-247.927,-63.514C-252.956,-65.571 -265.16,-61.831 -265.16,-61.831C-265.16,-61.831 -271.996,-72.378 -276.235,-73.033L-278.115,-67.886C-272.074,-64.898 -267.752,-54.952 -267.752,-54.952C-267.752,-54.952 -262.679,-56.93 -257.512,-58.109C-263.509,-55.361 -269.216,-51.958 -274.531,-47.953C-277.162,-50.9 -280.728,-54.363 -283.153,-54.573L-284.798,-49.372C-282.604,-48.452 -280.532,-46.6 -278.762,-44.609C-296.229,-29.836 -308.667,-8.694 -311.453,14.239C-311.453,14.239 -327.905,149.41 -327.998,150.391C-328.112,151.371 -328.17,152.2 -326.811,152.122C-326.402,152.092 -313.314,150.715 -295.576,148.845L-295.648,150.276C-289.044,151.822 -281.575,160.697 -281.575,160.697C-281.575,160.697 -270.265,151.797 -264.394,151.467L-263.801,146.271C-269.216,145.382 -280.514,153.8 -280.514,153.8C-280.514,153.8 -284.232,150.601 -288.139,148.058C-249.583,143.998 -196.086,138.329 -196.086,138.329C-180.092,136.651 -164.908,129.898 -152.116,119.85C-153.078,121.811 -153.854,123.573 -154.47,125.07C-193.251,204.838 -275.045,259.814 -369.695,259.82M106.453,-102.527C105.29,-102.395 -20.722,-89.124 -20.722,-89.124C-34.565,-87.669 -47.794,-82.396 -59.412,-74.512C-100.074,-207.296 -223.589,-303.865 -369.711,-303.865C-513.222,-303.865 -634.888,-210.658 -677.694,-81.499C-712.798,-77.946 -801.667,-68.65 -801.667,-68.65C-866.342,-61.831 -884.661,-11.545 -889.801,17.859C-894.242,43.059 -892.038,60.839 -891.773,65.824C-891.741,66.672 -891.416,67.706 -890.86,67.881C-890.093,68.121 -889.059,67.724 -887.727,66.197C-886.296,64.556 -862.181,34.695 -858.618,30.75C-855.064,26.812 -839.656,8.389 -809.585,5.238L-707.693,-5.508C-707.9,-3.349 -721.068,111.769 -721.068,111.769C-723.351,126.934 -733.353,136.338 -752.018,139.681C-752.018,139.681 -736.017,0.331 -736.002,0.102C-735.936,-0.132 -736.002,-0.421 -736.383,-0.349C-736.789,-0.271 -759.452,3.596 -759.452,3.596C-795.169,11.287 -825.451,44.562 -829.864,80.941L-837.636,148.604C-859.114,150.793 -873.182,148.815 -882,148.142C-884.982,147.932 -887.781,147.558 -890.171,147.276C-891.163,147.156 -891.924,148.088 -891.371,148.912C-887.739,154.557 -879.056,169.902 -867.83,181.754C-852.671,197.833 -830.543,205.812 -803.085,205.812L-734.793,199.642C-693.989,195.337 -669.565,186.932 -654.619,176C-599.559,276.771 -492.622,345.132 -369.711,345.132C-226.118,345.132 -104.412,251.835 -61.651,122.592C-20.352,118.251 18.878,114.108 18.878,114.108C81.803,107.476 84.208,77.814 85.507,61.886C85.637,60.389 88.601,34.466 88.985,27.191C90.228,7.901 76.088,-9.446 55.467,-14.004C47.105,-15.862 13.117,-21.773 -8.674,-25.513C-8.151,-25.909 -7.648,-26.09 -7.354,-26.162L53.924,-32.698C75.243,-34.941 91.826,-50.593 99.496,-75.655L107.434,-101.595C107.434,-101.595 107.599,-102.671 106.453,-102.527" style="fill:rgb(199,160,121);fill-rule:nonzero"></path>
            </g>
            <g transform="matrix(1,0,0,1,582.497,498.589)">
                <path d="M0,-231C-0.975,-230.904 -130.659,-217.254 -130.659,-217.254C-170.29,-213.04 -205.166,-178.116 -210.108,-137.703C-210.108,-137.703 -226.758,-0.818 -226.806,-0.505C-226.839,-0.193 -226.523,0.126 -226.084,0.066C-225.729,0.03 -149.26,-7.89 -140.135,-8.81C-139.57,-8.869 -139.233,-9.488 -139.146,-9.874C-139.089,-10.271 -122.613,-145.995 -122.613,-145.995C-121.841,-149.236 -120.329,-153.36 -117.448,-154.275L-94.001,-156.74C-94.001,-156.74 -111.146,-15.808 -111.417,-13.746C-111.57,-12.604 -110.993,-11.906 -109.848,-12.008C-97.468,-13.319 -25.594,-20.896 -25.233,-20.943C-24.864,-20.967 -24.013,-21.376 -23.971,-22.026C-22.095,-37.172 1.224,-228.559 1.283,-229.629C1.437,-230.742 1.076,-231.126 0,-231" style="fill:rgb(199,160,121);fill-rule:nonzero"></path>
            </g>
            <g transform="matrix(1,0,0,1,260.466,506.887)">
                <path d="M0,-245.504C-9.446,-255.251 -22.68,-259.796 -37.957,-258.168L-169.247,-244.29C-215.056,-239.491 -240.061,-207.815 -247.571,-182.146C-252.237,-166.091 -253.133,-156.29 -253.678,-149.754C-253.678,-149.754 -254.585,-134.769 -254.377,-130.097C-254.377,-129.441 -254.411,-129.148 -254.032,-128.961C-253.815,-128.865 -253.497,-128.937 -253.043,-129.424C-250.602,-132.142 -244.457,-140.668 -242.983,-142.538C-237.956,-148.768 -228.708,-160.552 -222.603,-165.82C-214.981,-172.38 -199.085,-183.739 -177.755,-185.976L-71.74,-197.136C-69.852,-197.376 -68.631,-197.004 -68.497,-196.775C-66.867,-195.104 -67.799,-191.934 -67.799,-191.934L-81.304,-71.291C-84.229,-51.472 -99.271,-39.608 -127.664,-35.958C-127.664,-35.958 -112.313,-173.673 -112.252,-174.214C-112.205,-174.882 -112.574,-175.254 -113.29,-175.104C-114.023,-174.972 -126.215,-172.441 -126.215,-172.441C-158.619,-165.478 -186.047,-135.353 -190.087,-102.414L-196.833,-43.409L-198.782,-28.508L-202.63,-28.075C-210.408,-27.264 -220.272,-26.686 -239.971,-28.075C-243.392,-28.316 -245.112,-28.712 -245.509,-28.201C-245.794,-27.696 -245.632,-27.077 -244.649,-25.424C-244.249,-24.72 -236.48,-10.031 -219.635,2.338C-209.157,9.999 -192.568,14.292 -171.598,14.292C-160.08,14.292 -147.882,13.185 -136.358,11.954L-118.744,10.095C-36.763,1.442 -11.788,-9.442 -4.605,-65.043L12.063,-205.927C13.978,-221.525 9.699,-235.565 0,-245.504" style="fill:rgb(7,29,61);fill-rule:nonzero"></path>
            </g>
            <g transform="matrix(1,0,0,1,222.913,514.403)">
                <path d="M0,-258.022L-131.311,-244.162C-198.292,-237.115 -206.518,-173.865 -206.951,-171.309C-207.429,-168.754 -208.514,-158.532 -208.583,-157.768C-208.725,-157.041 -208.427,-156.74 -207.85,-157.485C-207.249,-158.292 -199.604,-168.339 -199.604,-168.339C-199.432,-168.615 -177.77,-196.678 -140.619,-200.586L-34.56,-211.765C-30.521,-212.192 -27.434,-211.404 -25.456,-209.299C-21.499,-205.126 -22.753,-196.882 -23.985,-188.157C-24.307,-186.041 -36.417,-77.844 -36.417,-77.844C-41.507,-42.428 -80.669,-38.285 -93.573,-36.943L-97.284,-36.541C-97.284,-36.541 -82.389,-173.438 -82.362,-174.033C-82.33,-174.635 -82.903,-174.863 -83.481,-174.737C-84.022,-174.61 -87.669,-173.835 -87.669,-173.835C-117.448,-167.401 -142.669,-139.771 -146.334,-109.556L-156.273,-30.342C-163.567,-29.656 -171.61,-29.007 -178.498,-29.007C-182.671,-29.007 -195.707,-29.909 -196.699,-30.005C-197.63,-30.095 -197.886,-29.584 -197.309,-28.916C-196.735,-28.225 -192.604,-23.036 -192.604,-23.036C-179.057,-6.963 -159.003,1.359 -135.354,0.186C-111.727,-0.95 -94.448,-3.367 -77.534,-4.847C-28.345,-9.212 18.057,-14.161 25.712,-72.697L42.341,-213.712C43.97,-227.038 40.335,-239.033 32.196,-247.392C24.343,-255.491 12.654,-259.381 0,-258.022" style="fill:rgb(29,70,125);fill-rule:nonzero"></path>
            </g>
            <g transform="matrix(1,0,0,1,884.209,387.253)">
                <path d="M0,-97.693L61.997,-104.271C77.559,-105.918 91.804,-118.912 97.636,-133.5C99.873,-139.146 103.974,-153.727 104.912,-157.089C105.025,-157.551 104.671,-157.738 104.13,-157.714C103.583,-157.599 -12.068,-145.153 -12.068,-145.153C-47.379,-141.425 -79.711,-109.081 -84.066,-73.069C-84.066,-73.069 -87.091,-46.486 -87.124,-46.215C-87.124,-45.963 -87.022,-45.818 -86.842,-45.795C-86.722,-45.77 16.987,-28.176 16.987,-28.176C16.987,-28.176 16.218,-23.823 15.229,-17.143C14.176,-10.499 -30.623,-5.147 -48.731,0.042C-76.108,7.865 -103.618,14.672 -129.131,45.091C-133.012,49.769 -135.985,56.336 -137.579,58.837C-137.904,59.378 -137.699,60.045 -136.908,59.985C-136.052,59.919 29.611,42.259 29.611,42.259C63.623,38.682 82.339,25.765 85.198,3.897L85.531,1.233C86.782,-7.907 89.028,-24.96 89.659,-36.565C90.606,-51.952 78.593,-66.419 61.721,-70.195C51.522,-72.426 2.946,-80.772 -11.644,-83.249C-9.81,-91.403 -5.806,-96.274 0,-97.693" style="fill:rgb(7,29,61);fill-rule:nonzero"></path>
            </g>
            <g transform="matrix(1,0,0,1,883.512,395.009)">
                <path d="M0,-112.454L62.321,-119.08C82.261,-121.209 90.813,-139.747 94.175,-150.577C94.175,-150.577 95.594,-155.374 95.663,-155.832C95.757,-156.295 95.423,-156.439 94.782,-156.385C94.163,-156.33 -10.946,-145.231 -10.946,-145.231C-42.917,-141.881 -72.077,-112.575 -76.067,-79.882C-76.067,-79.882 -78.472,-59.426 -78.486,-59.185C-78.486,-58.951 -78.376,-58.782 -78.168,-58.734C-77.943,-58.723 25.615,-40.353 25.615,-40.353C25.57,-39.721 25.469,-38.868 25.401,-38.308L24.176,-28.254C21.869,-14.106 11.776,-12.194 -30.203,-4.366C-40.095,-2.519 -98.219,10.631 -118.434,36.33C-120.593,39.157 -122.126,41.327 -122.946,42.662C-123.506,43.564 -123.28,43.985 -122.352,43.913C-111.567,42.698 4.236,30.233 19.921,28.574C56.492,24.726 74.612,18.514 78.653,-6.542C80.953,-20.991 82.432,-33.63 83.036,-44.087C83.761,-56.083 74.089,-67.345 60.493,-70.381C48.811,-72.967 -16.68,-84.133 -17.312,-84.211C-17.876,-84.295 -19.172,-84.975 -19.069,-86.274C-17.008,-104.842 -7.63,-110.777 0,-112.454" style="fill:rgb(29,70,125);fill-rule:nonzero"></path>
            </g>
            <g transform="matrix(1,0,0,1,877.682,318.255)">
                <path d="M0,-59.523L94.067,-69.462C94.87,-71.47 95.556,-73.389 96.052,-75.024L-4.642,-64.393C-34.839,-61.231 -62.426,-33.517 -66.136,-2.676L-68.136,14.575L-63.003,15.501L-61.467,2.17C-57.447,-30.42 -30.16,-56.348 0,-59.523" style="fill:white;fill-rule:nonzero"></path>
            </g>
            <g transform="matrix(1,0,0,1,870.196,333.695)">
                <path d="M0,-13.956C6.807,-12.832 66.765,-2.592 77.621,-0.181C81.797,0.734 85.543,2.561 88.583,4.985C85.128,0.15 79.627,-3.77 72.943,-5.081C61.516,-7.276 2.11,-17.678 -4.702,-18.869C-4.831,-18.869 -4.961,-18.923 -5.027,-18.941C-4.598,-16.289 -2.366,-14.377 0,-13.956" style="fill:white;fill-rule:nonzero"></path>
            </g>
            <g transform="matrix(1,0,0,1,916.421,416.53)">
                <path d="M0,-44.25L1.154,-53.552C1.548,-56.679 2.345,-60.226 -0.688,-60.81L-3.211,-61.272C-3.28,-60.334 -4.685,-49.132 -4.685,-49.132C-7.682,-30.847 -15.201,-30.378 -62.372,-21.863C-80.451,-18.563 -136.014,-1.233 -147.828,17.022C-144.435,16.655 -141.085,16.342 -137.82,15.994C-119.649,-0.013 -73.812,-14.064 -57.68,-16.975C-10.457,-25.465 -2.974,-26.007 0,-44.25" style="fill:white;fill-rule:nonzero"></path>
            </g>
            <g transform="matrix(1,0,0,1,343.428,495.317)">
                <path d="M0,-192.011C-27.864,-183.791 -53.759,-153.234 -57.445,-122.976C-57.445,-122.976 -72.829,3.398 -72.922,4.463C-72.967,5.539 -72.255,5.785 -71.584,5.755C-70.974,5.659 -7.513,-1.015 -1.539,-1.646C-1.266,-1.707 -1.079,-1.887 -1.034,-2.2C0.349,-13.336 22.609,-196.593 22.63,-197.032C22.645,-197.368 22.26,-197.796 21.728,-197.639C21.238,-197.537 11.066,-195.282 0,-192.011" style="fill:rgb(7,29,61);fill-rule:nonzero"></path>
            </g>
            <g transform="matrix(1,0,0,1,351.933,492.024)">
                <path d="M0,-183.168C-29.739,-176.752 -54.925,-149.134 -58.617,-118.877C-58.617,-118.877 -72.97,-0.657 -73.051,0.035C-73.217,0.769 -72.991,1.16 -71.903,1.069C-70.916,0.925 -21.544,-4.282 -16.562,-4.788C-16.276,-4.835 -16.163,-4.992 -16.123,-5.262C-14.917,-15.052 5.533,-183.27 5.56,-183.631C5.64,-183.992 5.352,-184.328 4.892,-184.232C4.429,-184.118 0,-183.168 0,-183.168" style="fill:rgb(29,70,125);fill-rule:nonzero"></path>
            </g>
            <g transform="matrix(1,0,0,1,352.074,482.227)">
                <path d="M0,-163.023L0.782,-169.385C-27.101,-163.317 -51.176,-137.125 -54.643,-108.588L-68.644,6.362L-63.284,5.797L-49.983,-103.747C-46.813,-132.525 -25.477,-155.002 0,-163.023" style="fill:white;fill-rule:nonzero"></path>
            </g>
            <g transform="matrix(1,0,0,1,452.127,477.573)">
                <path d="M0,-188.151C-35.359,-184.417 -67.682,-152.049 -72.089,-115.977C-72.089,-115.977 -87.627,11.732 -87.66,12.111C-87.72,12.55 -87.54,12.868 -87.041,12.814C-86.551,12.76 -24.154,6.206 -16.506,5.34C-15.991,5.334 -15.691,4.805 -15.631,4.408C-15.598,4.059 0.168,-125.508 0.168,-125.508C2.104,-134.161 6.157,-139.266 11.894,-140.685L45.19,-144.22C45.19,-144.22 28.021,-2.326 27.735,-1.112C27.482,0.049 28.071,0.704 29.133,0.583C39.677,-0.528 98.33,-6.752 98.728,-6.782C99.115,-6.782 99.521,-7.101 99.545,-7.582C101.146,-20.443 122.875,-198.289 122.875,-199.431C122.947,-200.64 121.922,-201.019 121.17,-200.935C120.397,-200.82 0,-188.151 0,-188.151" style="fill:rgb(7,29,61);fill-rule:nonzero"></path>
            </g>
            <g transform="matrix(1,0,0,1,452.503,470.46)">
                <path d="M0,-173.378C-31.914,-169.993 -61.14,-140.698 -65.087,-108.059C-65.087,-108.059 -79.542,10.625 -79.6,11.208C-79.654,11.755 -79.564,11.996 -79.092,11.942C-78.616,11.888 -30.152,6.765 -23.448,6.061C-22.907,6.001 -22.612,5.622 -22.522,5.141C-22.501,4.852 -7.469,-119.02 -7.469,-119.02C-3.996,-134.949 5.384,-139.387 10.793,-140.607L51.025,-144.888C51.426,-144.888 51.97,-144.888 52.502,-144.407C52.896,-144.01 53.028,-143.475 52.917,-142.862C52.917,-142.862 35.795,-2.886 35.795,-1.834C35.717,-0.812 36.174,-0.21 37.311,-0.342C46.777,-1.329 91.177,-6.037 91.607,-6.049C92.362,-6.097 92.65,-6.813 92.702,-7.221C94.046,-18.303 114.162,-184.069 114.327,-184.586C114.337,-185.103 113.925,-185.374 113.482,-185.338C112.975,-185.277 0,-173.378 0,-173.378" style="fill:rgb(29,70,125);fill-rule:nonzero"></path>
            </g>
            <g transform="matrix(1,0,0,1,457.65,461.507)">
                <path d="M0,-155.465L103.892,-166.39L104.505,-171.814L-4.693,-160.324C-34.912,-157.131 -62.427,-129.483 -66.188,-98.606L-80.139,16.349L-74.792,15.772L-61.45,-93.723C-57.737,-124.583 -30.165,-152.284 0,-155.465" style="fill:white;fill-rule:nonzero"></path>
            </g>
            <g transform="matrix(1,0,0,1,512.617,464.073)">
                <path d="M0,-135.994C-0.79,-136.872 -1.931,-137.425 -3.12,-137.612C-3.052,-137.088 -3.033,-136.523 -3.09,-135.97L-19.875,1.618L-14.509,1.047L1.588,-131.057C1.828,-132.946 1.224,-134.713 0,-135.994" style="fill:white;fill-rule:nonzero"></path>
            </g>
            <g transform="matrix(1,0,0,1,75.0117,347.049)">
                <path d="M0,145.641L10.318,63.185C13.602,36.434 34.906,11.805 60.521,3.831C60.969,-0.45 61.11,-2.459 61.11,-2.459C33.204,3.549 9.131,29.771 5.611,58.296L-4.677,140.765C-18.559,142.171 -33.167,142.424 -41.57,141.666C-39.842,143.723 -37.148,146.272 -36.889,146.549C-28.104,148.1 -13.833,147.012 0,145.641" style="fill:white;fill-rule:nonzero"></path>
            </g>
            <g transform="matrix(1,0,0,1,96.728,323.643)">
                <path d="M0,-44.461L131.329,-58.297C141.632,-59.385 150.901,-56.799 157.819,-51.015C157.1,-51.965 156.298,-52.903 155.441,-53.775C148.367,-61.033 138.13,-64.381 126.672,-63.179L-4.702,-49.307C-69.176,-42.506 -76.683,19.92 -76.683,19.92C-76.683,19.92 -73.959,16.33 -68.752,11.472C-62.547,-7.319 -45.419,-39.669 0,-44.461" style="fill:white;fill-rule:nonzero"></path>
            </g>
            <g transform="matrix(1,0,0,1,134.486,305.951)">
                <path d="M0,180.473C13.336,179.06 55.181,174.677 60.761,136.074C60.761,136.074 72.85,27.846 73.199,25.813C74.63,16.055 75.935,6.795 70.652,1.208C69.82,0.355 68.891,-0.36 67.871,-0.932C70.856,4.732 69.708,12.603 68.533,20.901C68.163,22.994 56.068,131.209 56.068,131.209C50.512,169.83 8.691,174.202 -4.714,175.59L-8.743,175.946L-9.389,181.405L0,180.473Z" style="fill:white;fill-rule:nonzero"></path>
            </g>
            <g transform="matrix(1,0,0,1,684.035,313.444)">
                <path d="M0,93.123L-32.931,96.598L-23.36,17.75C-22.291,10.715 -19.277,1.894 -11.037,-0.054L21.94,-3.529L12.287,75.252C11.263,82.335 8.21,91.169 0,93.123M-23.231,-47.496C-58.548,-43.78 -90.893,-11.413 -95.275,24.671C-95.275,24.671 -110.727,151.815 -110.762,152.374C-110.831,152.928 -110.618,153.535 -109.849,153.433C-109.09,153.361 12.245,140.571 12.245,140.571C47.49,136.831 79.837,104.457 84.247,68.392C84.247,68.392 99.671,-58.518 99.767,-59.252C99.818,-60.045 99.061,-60.412 98.432,-60.315C97.72,-60.268 -23.231,-47.496 -23.231,-47.496" style="fill:rgb(7,29,61);fill-rule:nonzero"></path>
            </g>
            <g transform="matrix(1,0,0,1,703.745,331.362)">
                <path d="M0,57.785L-0.12,58.416C-2.609,75.661 -11.644,81.247 -18.833,82.859L-58.807,87.074C-59.228,87.128 -59.735,87.11 -60.276,86.563C-60.664,86.196 -60.803,85.655 -60.725,85.023L-50.328,-0.529C-47.781,-17.948 -38.654,-23.468 -31.564,-25.002L-31.021,-25.068L8.355,-29.241C8.96,-29.289 9.477,-29.109 9.861,-28.754C10.234,-28.363 10.391,-27.81 10.304,-27.166L0,57.785ZM70.887,-69.708C70.472,-69.66 -42.544,-57.755 -42.544,-57.755C-74.446,-54.381 -103.729,-25.056 -107.62,7.577C-107.62,7.577 -122.048,125.785 -122.09,126.405C-122.168,127.06 -121.488,127.553 -120.927,127.493C-120.385,127.457 -7.913,115.599 -7.913,115.599C24.022,112.214 53.281,82.925 57.285,50.25C57.285,50.25 71.608,-68.482 71.729,-69.017C71.789,-69.558 71.308,-69.768 70.887,-69.708" style="fill:rgb(29,70,125);fill-rule:nonzero"></path>
            </g>
            <g transform="matrix(1,0,0,1,718.155,425.922)">
                <path d="M0,-121.27L-10.43,-35.567C-13.478,-14.774 -25.639,-9.152 -32.629,-7.655L-72.829,-3.392C-73.388,-3.332 -73.968,-3.38 -74.51,-3.518C-74.312,-2.279 -73.803,-1.131 -72.939,-0.235C-71.707,1.04 -69.909,1.671 -68.075,1.484L-27.912,-2.754C-20.946,-4.234 -8.812,-9.892 -5.751,-30.679L4.682,-116.411C4.97,-118.227 4.351,-120.025 3.061,-121.312C2.24,-122.166 1.155,-122.719 -0.033,-122.941C0,-122.382 0.063,-121.811 0,-121.27" style="fill:white;fill-rule:nonzero"></path>
            </g>
            <g transform="matrix(1,0,0,1,666.327,438.008)">
                <path d="M0,-155.417L103.85,-166.366L104.511,-171.784L-4.687,-160.305C-34.866,-157.143 -62.424,-129.453 -66.146,-98.564L-80.126,16.367L-74.769,15.796L-61.465,-93.718C-57.734,-124.559 -30.129,-152.254 0,-155.417" style="fill:white;fill-rule:nonzero"></path>
            </g>
            <g transform="matrix(1,0,0,1,859.775,376.243)">
                <path d="M0,-16.987C-4.115,-17.631 -8.412,-18.31 -12.769,-18.995L-12.769,-18.989C-12.877,-16.343 -13.035,-13.728 -13.204,-11.112C-13.36,-8.629 -13.553,-6.157 -13.77,-3.687C-13.935,-1.792 -14.066,0.114 -14.266,2.008C-9.837,1.082 -5.411,0.192 -1.136,-0.668C-0.634,-6.086 -0.243,-11.528 0,-16.987" style="fill:rgb(7,29,61);fill-rule:nonzero"></path>
            </g>
            <g transform="matrix(1,0,0,1,214.861,13.5042)">
                <path d="M0,228.157C5.325,212.096 11.867,196.595 19.524,181.748C19.591,181.622 19.657,181.49 19.723,181.364C21.611,177.726 23.562,174.112 25.579,170.547C25.624,170.468 25.67,170.396 25.708,170.318C33.766,156.134 42.852,142.628 52.881,129.881C53.275,129.382 53.66,128.883 54.054,128.384C56.33,125.533 58.645,122.714 61.011,119.935C61.488,119.376 61.976,118.823 62.457,118.27C70.021,109.509 78.028,101.175 86.473,93.268C86.839,92.926 87.197,92.576 87.564,92.228C89.924,90.039 92.338,87.916 94.761,85.8C95.85,84.844 96.935,83.9 98.033,82.962C100.324,81.013 102.638,79.101 104.983,77.22C106.258,76.191 107.557,75.181 108.856,74.183C111.171,72.373 113.489,70.563 115.852,68.825C117.111,67.899 118.404,67.003 119.682,66.101C123.849,63.131 128.091,60.244 132.402,57.467C134.183,56.312 135.947,55.152 137.748,54.039C139.85,52.74 141.984,51.502 144.116,50.245C146.109,49.073 148.111,47.918 150.132,46.788C152.206,45.627 154.287,44.496 156.385,43.385C158.616,42.2 160.874,41.057 163.138,39.927C165.092,38.952 167.037,37.954 169.016,37.023C172.227,35.484 175.482,34.04 178.754,32.615C180.744,31.749 182.743,30.901 184.754,30.077C188.073,28.713 191.404,27.384 194.772,26.127C196.546,25.466 198.341,24.852 200.129,24.221C202.962,23.222 205.812,22.248 208.683,21.328C210.532,20.74 212.378,20.157 214.236,19.597C217.261,18.683 220.303,17.835 223.36,17.006C225.029,16.554 226.686,16.091 228.363,15.664C232.915,14.516 237.497,13.446 242.124,12.49C242.575,12.394 243.025,12.309 243.48,12.225C247.99,11.318 252.539,10.511 257.111,9.784C258.711,9.537 260.316,9.333 261.922,9.105C265.313,8.617 268.72,8.178 272.141,7.805C273.906,7.613 275.677,7.427 277.45,7.259C280.938,6.933 284.437,6.681 287.948,6.465C289.536,6.368 291.114,6.248 292.708,6.182C297.771,5.942 302.861,5.791 307.983,5.791C313.14,5.791 318.261,5.942 323.353,6.182C324.965,6.254 326.564,6.374 328.17,6.477C331.679,6.687 335.172,6.94 338.65,7.27C340.469,7.445 342.285,7.637 344.095,7.836C347.44,8.209 350.77,8.636 354.08,9.105C355.793,9.351 357.513,9.579 359.217,9.85C363.054,10.464 366.86,11.143 370.651,11.888C371.742,12.105 372.852,12.285 373.943,12.508C378.769,13.506 383.555,14.612 388.299,15.827C389.616,16.164 390.912,16.536 392.22,16.891C395.672,17.824 399.104,18.78 402.505,19.813C404.222,20.337 405.923,20.884 407.628,21.437C410.634,22.411 413.626,23.422 416.593,24.474C418.331,25.087 420.062,25.706 421.789,26.355C424.855,27.504 427.892,28.713 430.913,29.951C432.401,30.565 433.91,31.148 435.393,31.78C439.755,33.643 444.072,35.586 448.339,37.63C449.259,38.069 450.158,38.568 451.071,39.013C454.46,40.685 457.824,42.386 461.144,44.166C462.787,45.05 464.402,45.976 466.025,46.878C468.6,48.321 471.158,49.788 473.689,51.285C475.418,52.32 477.129,53.36 478.837,54.418C481.266,55.922 483.671,57.472 486.061,59.048C487.705,60.131 489.362,61.2 490.982,62.313C493.664,64.153 496.292,66.041 498.91,67.947C500.152,68.855 501.421,69.721 502.647,70.647C506.265,73.359 509.812,76.161 513.303,79.017C514.872,80.304 516.394,81.633 517.942,82.949C520.004,84.705 522.063,86.455 524.077,88.265C525.744,89.744 527.382,91.265 529.012,92.781C530.854,94.5 532.673,96.238 534.478,97.994C536.112,99.581 537.736,101.181 539.339,102.799C541.115,104.608 542.851,106.46 544.585,108.306C546.104,109.924 547.643,111.529 549.131,113.183C551.756,116.094 554.314,119.057 556.827,122.058C558.574,124.162 560.271,126.285 561.966,128.42C563.481,130.32 565.002,132.214 566.469,134.157C567.964,136.116 569.407,138.107 570.855,140.109C572.176,141.93 573.489,143.765 574.772,145.623C576.208,147.691 577.62,149.772 579.009,151.876C580.224,153.71 581.402,155.574 582.584,157.445C583.943,159.603 585.312,161.75 586.619,163.938C587.743,165.826 588.813,167.744 589.902,169.657C592.229,173.721 594.466,177.852 596.618,182.043C597.596,183.926 598.597,185.801 599.531,187.725C600.692,190.094 601.786,192.506 602.893,194.905C603.776,196.829 604.663,198.754 605.512,200.702C606.569,203.131 607.595,205.59 608.6,208.055C609.396,210.016 610.169,211.976 610.929,213.96C611.886,216.461 612.835,218.957 613.737,221.476C614.44,223.467 615.097,225.475 615.767,227.483C616.617,230.032 617.495,232.564 618.282,235.137C621.921,232.678 625.722,230.502 629.639,228.584C626.479,218.596 622.886,208.723 618.772,199C601.78,158.821 577.479,122.749 546.506,91.789C515.516,60.822 479.456,36.47 439.295,19.507C397.694,1.919 353.493,-6.98 307.983,-6.98C262.472,-6.98 218.31,1.919 176.709,19.507C136.557,36.47 100.477,60.822 69.498,91.789C38.534,122.749 14.218,158.821 -2.781,199C-7.026,209.047 -10.742,219.252 -13.974,229.588C-8.76,229.053 -4.016,228.572 0,228.157" style="fill:rgb(7,29,61);fill-rule:nonzero"></path>
            </g>
            <g transform="matrix(1,0,0,1,830.904,679.591)">
                <path d="M0,-233.839C-5.31,-217.79 -11.833,-202.307 -19.467,-187.485C-19.563,-187.304 -19.653,-187.124 -19.743,-186.938C-21.62,-183.312 -23.556,-179.735 -25.561,-176.193C-25.609,-176.109 -25.66,-176.018 -25.711,-175.934C-33.754,-161.761 -42.821,-148.268 -52.833,-135.527C-53.241,-135.004 -53.656,-134.475 -54.077,-133.951C-56.338,-131.101 -58.644,-128.294 -60.995,-125.533C-61.479,-124.968 -61.976,-124.402 -62.465,-123.832C-69.957,-115.167 -77.892,-106.887 -86.25,-99.052C-86.704,-98.625 -87.14,-98.186 -87.6,-97.766C-89.939,-95.601 -92.329,-93.49 -94.725,-91.392C-95.838,-90.423 -96.943,-89.45 -98.068,-88.5C-100.348,-86.563 -102.644,-84.657 -104.977,-82.787C-106.27,-81.741 -107.587,-80.718 -108.9,-79.703C-111.2,-77.91 -113.5,-76.113 -115.852,-74.381C-117.147,-73.425 -118.479,-72.523 -119.784,-71.585C-123.894,-68.656 -128.066,-65.818 -132.312,-63.07C-134.137,-61.898 -135.943,-60.701 -137.796,-59.559C-139.879,-58.278 -141.996,-57.033 -144.109,-55.801C-146.124,-54.616 -148.138,-53.443 -150.183,-52.307C-152.242,-51.159 -154.313,-50.022 -156.399,-48.922C-158.651,-47.732 -160.919,-46.577 -163.197,-45.446C-165.14,-44.466 -167.07,-43.486 -169.033,-42.548C-172.334,-40.979 -175.681,-39.482 -179.041,-38.033C-180.954,-37.196 -182.869,-36.391 -184.799,-35.597C-188.112,-34.238 -191.446,-32.898 -194.819,-31.647C-196.591,-30.991 -198.385,-30.378 -200.165,-29.753C-203.01,-28.736 -205.859,-27.762 -208.73,-26.849C-210.576,-26.253 -212.417,-25.675 -214.274,-25.123C-217.306,-24.209 -220.366,-23.349 -223.436,-22.525C-225.092,-22.074 -226.739,-21.605 -228.408,-21.185C-232.984,-20.024 -237.596,-18.953 -242.253,-17.985C-242.717,-17.889 -243.179,-17.817 -243.64,-17.721C-248.118,-16.824 -252.628,-16.019 -257.168,-15.304C-258.771,-15.051 -260.382,-14.84 -261.987,-14.618C-265.379,-14.131 -268.776,-13.693 -272.2,-13.319C-273.972,-13.127 -275.739,-12.947 -277.516,-12.772C-281,-12.454 -284.5,-12.195 -288.009,-11.985C-289.596,-11.888 -291.184,-11.768 -292.776,-11.69C-297.843,-11.462 -302.93,-11.299 -308.06,-11.299C-313.04,-11.299 -317.992,-11.462 -322.923,-11.678C-324.222,-11.744 -325.518,-11.804 -326.813,-11.876C-331.176,-12.129 -335.517,-12.454 -339.828,-12.868C-340.424,-12.928 -341.025,-12.964 -341.617,-13.025C-346.422,-13.524 -351.192,-14.137 -355.934,-14.847C-357.173,-15.033 -358.411,-15.237 -359.65,-15.43C-363.606,-16.061 -367.545,-16.765 -371.454,-17.534C-372.367,-17.721 -373.284,-17.877 -374.192,-18.069C-378.808,-19.026 -383.381,-20.084 -387.917,-21.238C-389.071,-21.521 -390.208,-21.839 -391.354,-22.14C-395.049,-23.12 -398.716,-24.167 -402.357,-25.273C-403.443,-25.598 -404.537,-25.917 -405.61,-26.253C-410.021,-27.636 -414.392,-29.115 -418.713,-30.685C-419.729,-31.058 -420.727,-31.454 -421.737,-31.827C-425.249,-33.138 -428.727,-34.509 -432.179,-35.94C-433.36,-36.427 -434.547,-36.914 -435.717,-37.42C-439.899,-39.211 -444.039,-41.069 -448.125,-43.029C-448.963,-43.432 -449.779,-43.853 -450.614,-44.275C-453.993,-45.922 -457.349,-47.647 -460.667,-49.421C-461.895,-50.076 -463.124,-50.726 -464.339,-51.406C-468.271,-53.564 -472.167,-55.789 -476,-58.104C-476.563,-58.446 -477.11,-58.807 -477.672,-59.151C-481.03,-61.225 -484.35,-63.36 -487.627,-65.542C-488.856,-66.36 -490.081,-67.189 -491.301,-68.026C-494.431,-70.166 -497.53,-72.372 -500.582,-74.622C-501.241,-75.114 -501.911,-75.566 -502.56,-76.059C-506.06,-78.686 -509.479,-81.399 -512.867,-84.158C-514.06,-85.126 -515.235,-86.112 -516.411,-87.104C-519.024,-89.293 -521.6,-91.53 -524.144,-93.803C-525.054,-94.614 -525.98,-95.408 -526.882,-96.238C-530.055,-99.136 -533.161,-102.107 -536.209,-105.126C-537.315,-106.219 -538.397,-107.332 -539.492,-108.444C-541.741,-110.729 -543.95,-113.05 -546.133,-115.414C-547.128,-116.49 -548.139,-117.547 -549.118,-118.643C-551.96,-121.787 -554.744,-124.992 -557.456,-128.263C-558.445,-129.448 -559.404,-130.662 -560.375,-131.859C-562.338,-134.282 -564.265,-136.741 -566.156,-139.219C-567.139,-140.511 -568.125,-141.78 -569.09,-143.085C-571.601,-146.488 -574.057,-149.922 -576.438,-153.415C-577.263,-154.636 -578.053,-155.875 -578.858,-157.095C-580.594,-159.717 -582.295,-162.368 -583.955,-165.044C-584.854,-166.494 -585.753,-167.943 -586.625,-169.403C-588.804,-173.041 -590.93,-176.709 -592.968,-180.431C-596.155,-178.098 -599.808,-175.886 -603.93,-173.799C-588.591,-145.797 -569.394,-120.151 -546.545,-97.284C-515.566,-66.312 -479.486,-42.001 -439.334,-25.021C-397.733,-7.433 -353.571,1.473 -308.06,1.473C-262.55,1.473 -218.349,-7.433 -176.748,-25.021C-136.587,-41.995 -100.527,-66.312 -69.537,-97.284C-38.563,-128.275 -14.263,-164.341 2.729,-204.501C7.014,-214.621 10.755,-224.91 14.005,-235.312C9.398,-234.831 4.718,-234.338 0,-233.839" style="fill:rgb(7,29,61);fill-rule:nonzero"></path>
            </g>
            <g transform="matrix(1,0,0,1,330.467,145.928)">
                <path d="M0,-14.995L-1.918,-17.088C-3.193,-18.453 -4.369,-19.307 -5.457,-19.625C-6.566,-19.956 -7.504,-19.764 -8.262,-19.078C-9.38,-18.014 -9.907,-17.052 -9.828,-16.108C-9.726,-15.158 -9.164,-14.105 -8.096,-12.927L6.759,3.26C7.633,4.204 8.535,4.763 9.419,4.829C10.312,4.943 11.241,4.534 12.191,3.651C12.811,3.104 13.18,2.508 13.31,1.835C13.421,1.173 13.367,0.542 13.135,-0.059C12.91,-0.708 12.603,-1.298 12.167,-1.881C11.737,-2.452 11.262,-3.06 10.703,-3.631L7.949,-6.638L15.634,-13.685L19.326,-9.686C22.052,-6.722 23.291,-3.541 23.072,-0.198C22.843,3.17 20.826,6.609 17.056,10.067C13.61,13.224 10.312,14.63 7.144,14.305C3.971,13.975 0.8,12.105 -2.37,8.678L-14.713,-4.756C-17.991,-8.297 -19.545,-11.682 -19.452,-14.923C-19.326,-18.158 -17.528,-21.423 -14.028,-24.635C-10.661,-27.755 -7.348,-29.361 -4.155,-29.505C-0.941,-29.625 2.159,-28.074 5.144,-24.796L7.684,-22.073L0,-14.995Z" style="fill:rgb(7,29,61);fill-rule:nonzero"></path>
            </g>
            <g transform="matrix(1,0,0,1,372.927,80.9226)">
                <path d="M0,52.577L-23.691,14.984L-14.879,9.422L-5.772,23.859L0.361,20.011L-8.761,5.579L0.081,0L23.757,37.629L14.942,43.155L5.06,27.521L-1.049,31.358L8.821,47.015L0,52.577Z" style="fill:rgb(7,29,61);fill-rule:nonzero"></path>
            </g>
            <g transform="matrix(1,0,0,1,413.356,100.808)">
                <path d="M0,-29.963L-0.108,-29.915L4.429,-10.289L10.066,-12.538L0,-29.963ZM-1.419,9.777L-8.824,-35.116L2.853,-39.74L28.275,-2.039L18.46,1.846L13.896,-5.623L6.292,-2.598L8.333,5.892L-1.419,9.777Z" style="fill:rgb(7,29,61);fill-rule:nonzero"></path>
            </g>
            <g transform="matrix(1,0,0,1,462.347,71.2061)">
                <path d="M0,-3.332L-0.091,-3.2L5.634,20.918L-4.062,22.831L-12.655,-20.776L-2.142,-22.838L10.558,-0.037L10.751,-0.061L4.963,-24.239L14.641,-26.163L23.245,17.443L12.779,19.518L0,-3.332Z" style="fill:rgb(7,29,61);fill-rule:nonzero"></path>
            </g>
            <g transform="matrix(1,0,0,1,525.524,42.0657)">
                <path d="M0,44.407L-0.484,40.474L-0.623,40.474C-1.684,42.332 -2.854,43.637 -4.167,44.388C-5.478,45.128 -7.288,45.501 -9.566,45.531C-11.684,45.537 -13.523,45.249 -15.032,44.569C-16.535,43.902 -17.754,42.909 -18.694,41.647C-19.647,40.372 -20.321,38.905 -20.76,37.203C-21.166,35.483 -21.376,33.626 -21.41,31.503L-21.626,13.265C-21.671,8.443 -20.601,4.884 -18.346,2.532C-16.094,0.194 -12.588,-0.997 -7.806,-1.057C-3.214,-1.13 0.292,-0.113 2.757,1.919C5.213,3.964 6.458,7.21 6.527,11.63L6.562,14.943L-3.888,15.075L-3.924,12.616C-3.924,10.59 -4.167,9.116 -4.609,8.233C-5.061,7.403 -5.929,6.976 -7.23,6.922C-8.776,6.976 -9.835,7.343 -10.391,8.094C-10.941,8.846 -11.229,10.03 -11.19,11.606L-10.941,33.583C-10.926,34.888 -10.604,35.856 -9.988,36.524C-9.326,37.209 -8.355,37.54 -7.054,37.516C-6.227,37.491 -5.559,37.335 -5.024,37.017C-4.53,36.698 -4.167,36.259 -3.924,35.778C-3.71,35.224 -3.551,34.659 -3.503,34.065C-3.461,33.433 -3.434,32.681 -3.434,31.773L-3.467,28.268L-7.207,28.322L-7.324,20.319L6.846,20.163L7.122,44.329L0,44.407Z" style="fill:rgb(7,29,61);fill-rule:nonzero"></path>
            </g>
            <g transform="matrix(1,0,0,1,583.763,57.6404)">
                <path d="M0,22.47L0.139,22.5L9.362,-7.414L19.043,-5.508L3.214,36.655L-8.304,34.37L-5.405,3.084L-5.511,3.049L-14.942,33.083L-26.268,30.84L-25.021,-14.185L-15.123,-12.248L-18.078,18.995L-17.939,18.875L-7.802,-10.823L2.077,-8.869L0,22.47Z" style="fill:rgb(7,29,61);fill-rule:nonzero"></path>
            </g>
            <g transform="matrix(1,0,0,1,639.28,94.1506)">
                <path d="M0,-14.485C0.346,-15.272 0.631,-15.976 0.803,-16.62C0.992,-17.257 1.062,-17.864 1.062,-18.459C1.062,-19.067 0.914,-19.632 0.602,-20.173C0.268,-20.685 -0.249,-21.075 -1.025,-21.412C-1.756,-21.742 -2.399,-21.815 -3.03,-21.694C-3.641,-21.55 -4.151,-21.303 -4.6,-20.865C-5.039,-20.414 -5.451,-19.921 -5.796,-19.338C-6.147,-18.76 -6.487,-18.111 -6.812,-17.383L-13.968,-0.595C-14.245,0.072 -14.509,0.77 -14.72,1.455C-14.892,2.171 -15.002,2.868 -15.021,3.53C-15.021,4.215 -14.864,4.823 -14.545,5.4C-14.227,5.977 -13.703,6.404 -13.003,6.717C-12.264,7.017 -11.584,7.101 -10.955,6.951C-10.324,6.783 -9.783,6.458 -9.371,5.977C-8.92,5.49 -8.508,4.943 -8.181,4.36C-7.838,3.759 -7.501,3.079 -7.168,2.315L0,-14.485ZM2.766,5.598C0.716,10.385 -1.773,13.493 -4.702,14.919C-7.631,16.386 -11.442,16.078 -16.142,14.077C-20.835,12.038 -23.742,9.471 -24.746,6.32C-25.75,3.187 -25.245,-0.776 -23.219,-5.531L-16.121,-22.127C-14.443,-26.072 -12.005,-28.573 -8.836,-29.716C-5.667,-30.871 -2.015,-30.546 2.171,-28.736C6.358,-26.974 9.113,-24.551 10.403,-21.484C11.723,-18.442 11.542,-14.948 9.883,-11.015L2.766,5.598Z" style="fill:rgb(7,29,61);fill-rule:nonzero"></path>
            </g>
            <g transform="matrix(1,0,0,1,674.643,116.068)">
                <path d="M0,-9.849L-0.159,-9.819L-13.097,11.311L-21.343,5.851L3.298,-31.135L12.213,-25.212L5.162,-0.078L5.301,0.037L18.234,-21.189L26.479,-15.688L1.828,21.286L-7.035,15.352L0,-9.849Z" style="fill:rgb(7,29,61);fill-rule:nonzero"></path>
            </g>
            <g transform="matrix(1,0,0,1,301.121,194.237)">
                <path d="M0,-38.387L3.586,-27.984L12.774,-33.997L8.833,-23.745L19.75,-22.44L10.117,-17.113L17.651,-9.104L6.86,-11.208L7.465,-0.228L0.55,-8.791L-6.043,0L-5.83,-10.997L-16.53,-8.454L-9.32,-16.758L-19.139,-21.731L-8.268,-23.438L-12.588,-33.534L-3.166,-27.864L0,-38.387Z" style="fill:rgb(7,29,61);fill-rule:nonzero"></path>
            </g>
            <g transform="matrix(1,0,0,1,715.338,161.743)">
                <path d="M0,-38.399L3.566,-27.997L12.774,-34.003L8.827,-23.757L19.741,-22.453L10.114,-17.113L17.643,-9.116L6.844,-11.214L7.463,-0.241L0.536,-8.803L-6.036,0L-5.838,-10.986L-16.532,-8.472L-9.325,-16.771L-19.127,-21.731L-8.259,-23.463L-12.597,-33.553L-3.192,-27.877L0,-38.399Z" style="fill:rgb(7,29,61);fill-rule:nonzero"></path>
            </g>
            <g transform="matrix(1,0,0,1,375.305,578.369)">
                <path d="M0,4.143L9.648,-1.196L-1.295,-2.514L2.661,-12.772L-6.527,-6.734L-10.092,-17.125L-13.286,-6.638L-22.699,-12.302L-18.367,-2.183L-29.231,-0.463L-19.431,4.485L-26.64,12.789L-15.943,10.27L-16.142,21.268L-9.569,12.459L-2.646,21.009L-3.253,10.036L7.54,12.134L0,4.143Z" style="fill:rgb(7,29,61);fill-rule:nonzero"></path>
            </g>
            <g transform="matrix(1,0,0,1,729.937,548.388)">
                <path d="M0,-9.14L3.98,-19.374L-5.243,-13.361L-8.827,-23.764L-11.995,-13.241L-21.394,-18.935L-17.07,-8.809L-27.939,-7.083L-18.146,-2.135L-25.362,6.139L-14.665,3.631L-14.854,14.624L-8.268,5.827L-1.358,14.377L-1.96,3.397L8.821,5.508L1.3,-2.502L10.929,-7.829L0,-9.14Z" style="fill:rgb(7,29,61);fill-rule:nonzero"></path>
            </g>
            <g transform="matrix(1,0,0,1,407.754,627.79)">
                <path d="M0,-50.124L23.595,-40.041L19.979,-31.569L6.756,-37.208L3.852,-30.408L16.239,-25.116L12.757,-16.975L0.37,-22.266L-3.006,-14.341L10.712,-8.479L7.096,0L-17.001,-10.301L0,-50.124Z" style="fill:rgb(7,29,61);fill-rule:nonzero"></path>
            </g>
            <g transform="matrix(1,0,0,1,457.86,624.537)">
                <path d="M0,-16.145L0.25,-17.156C0.869,-19.621 0.382,-21.93 -1.734,-22.465C-4.092,-23.054 -5.607,-21.491 -6.079,-19.609C-8.153,-11.305 10.757,-10.89 6.912,4.479C4.669,13.433 -1.572,16.115 -11.227,13.703C-20.291,11.43 -24.575,7.047 -22.396,-1.672L-22.025,-3.139L-11.431,-0.487L-11.68,0.504C-12.579,4.101 -11.431,5.772 -9.312,6.301C-7.074,6.86 -5.337,5.417 -4.763,3.12C-2.685,-5.184 -20.91,-5.364 -17.179,-20.258C-15.057,-28.736 -9.359,-32.26 -0.117,-29.945C9.422,-27.552 12.498,-22.598 10.243,-13.584L0,-16.145Z" style="fill:rgb(7,29,61);fill-rule:nonzero"></path>
            </g>
            <g transform="matrix(1,0,0,1,490.228,635.443)">
                <path d="M0,-24.297L-8.458,-25.085L-7.573,-34.628L20.579,-32.03L19.701,-22.481L11.238,-23.263L8.132,10.331L-3.109,9.297L0,-24.297Z" style="fill:rgb(7,29,61);fill-rule:nonzero"></path>
            </g>
            <g transform="matrix(0.999864,-0.0164684,-0.0164684,-0.999864,517.888,634.694)">
                <rect x="0.098" y="-11.937" width="10.202" height="12.022" style="fill:rgb(7,29,61)"></rect>
            </g>
            <g transform="matrix(1,0,0,1,555.938,625.511)">
                <path d="M0,-9.171C-0.729,-13.536 -0.834,-17.15 0.748,-20.03C2.329,-22.905 5.525,-24.961 11.265,-25.995C22.361,-27.997 25.801,-23.253 26.943,-16.928C27.978,-11.197 26.55,-7.18 23.958,-3.446L18.54,4.124C17.755,5.254 16.61,6.752 16.42,8.08L30.984,5.453L32.493,13.817L4.674,18.826C3.625,12.981 4.148,7.335 8.083,1.515L14.13,-7.349C15.889,-9.88 16.442,-11.643 15.861,-14.805C15.215,-18.383 13.88,-19.315 12.151,-19.002C10.6,-18.725 9.196,-17.613 10.057,-12.833L10.384,-11.047L0,-9.171Z" style="fill:rgb(7,29,61);fill-rule:nonzero"></path>
            </g>
            <g transform="matrix(1,0,0,1,613.13,601.982)">
                <path d="M0,15.609C2.026,21.394 3.481,22.614 5.713,21.833C7.955,21.057 8.322,19.187 6.299,13.402L1.605,0.006C-0.418,-5.779 -1.876,-7.005 -4.106,-6.224C-6.343,-5.442 -6.717,-3.578 -4.693,2.207L0,15.609ZM-6.431,-12.868C3.067,-16.199 8.863,-13.403 14.603,2.97C20.336,19.355 17.549,25.151 8.039,28.484C-1.461,31.808 -7.258,29.012 -12.994,12.639C-18.73,-3.74 -15.938,-9.537 -6.431,-12.868" style="fill:rgb(7,29,61);fill-rule:nonzero"></path>
            </g>
            <g transform="matrix(1,0,0,1,660.235,569.536)">
                <path d="M0,43.173L-13.884,17.425L-21.039,21.292L-24.38,15.086C-18.318,11.749 -16.415,9.139 -17.611,3.854L-10.456,0L9.939,37.821L0,43.173Z" style="fill:rgb(7,29,61);fill-rule:nonzero"></path>
            </g>
            <g transform="matrix(1,0,0,1,695.186,550.072)">
                <path d="M0,41.375L-17.218,17.732L-23.787,22.518L-27.933,16.83C-22.377,12.711 -20.841,9.861 -22.734,4.792L-16.165,0L9.131,34.725L0,41.375Z" style="fill:rgb(7,29,61);fill-rule:nonzero"></path>
            </g>
            <g transform="matrix(1,0,0,1,740.439,582.981)">
                <path d="M0,-139.97C-2.862,-137.727 -5.859,-135.67 -8.941,-133.77C-18.438,-115.011 -30.384,-97.699 -44.37,-82.27C-46.955,-79.426 -49.598,-76.635 -52.315,-73.912C-54.724,-71.512 -57.201,-69.173 -59.706,-66.87C-59.949,-66.642 -60.181,-66.413 -60.428,-66.191C-61.203,-65.475 -62.026,-64.82 -62.814,-64.122C-104.039,-27.648 -158.204,-5.466 -217.57,-5.466L-217.576,-5.466C-282.138,-5.466 -340.532,-31.629 -382.854,-73.912C-385.792,-76.852 -388.624,-79.888 -391.399,-82.979C-391.567,-82.714 -391.784,-82.534 -392.105,-82.504C-393.122,-82.402 -395.082,-82.185 -397.703,-81.921C-397.7,-81.909 -397.688,-81.896 -397.682,-81.885C-378.558,-60.009 -355.519,-41.639 -329.658,-27.876C-329.339,-27.714 -329.011,-27.552 -328.692,-27.389C-325.454,-25.682 -322.181,-24.052 -318.855,-22.489C-318.074,-22.122 -317.277,-21.785 -316.496,-21.43C-313.615,-20.114 -310.705,-18.851 -307.765,-17.648C-306.688,-17.209 -305.6,-16.794 -304.517,-16.367C-301.821,-15.315 -299.108,-14.305 -296.37,-13.349C-295.099,-12.904 -293.82,-12.477 -292.536,-12.05C-289.944,-11.196 -287.329,-10.391 -284.692,-9.621C-283.276,-9.206 -281.86,-8.791 -280.43,-8.407C-277.887,-7.715 -275.321,-7.077 -272.748,-6.47C-271.224,-6.109 -269.708,-5.748 -268.178,-5.418C-265.635,-4.865 -263.067,-4.384 -260.496,-3.915C-258.921,-3.632 -257.352,-3.325 -255.768,-3.073C-253.146,-2.658 -250.506,-2.315 -247.86,-1.984C-246.3,-1.78 -244.755,-1.552 -243.191,-1.384C-240.332,-1.082 -237.443,-0.866 -234.557,-0.674C-233.186,-0.571 -231.833,-0.433 -230.456,-0.355C-226.192,-0.127 -221.899,0 -217.579,0C-213.89,0 -210.229,-0.12 -206.578,-0.283C-205.55,-0.325 -204.528,-0.385 -203.506,-0.445C-200.619,-0.619 -197.745,-0.836 -194.892,-1.106C-194.06,-1.179 -193.224,-1.239 -192.396,-1.329C-188.846,-1.702 -185.316,-2.153 -181.813,-2.676C-181.012,-2.797 -180.215,-2.941 -179.415,-3.067C-176.619,-3.517 -173.841,-4.017 -171.081,-4.552C-170.059,-4.762 -169.046,-4.961 -168.032,-5.171C-164.806,-5.85 -161.602,-6.578 -158.427,-7.384C-158.18,-7.444 -157.927,-7.498 -157.684,-7.57C-154.316,-8.43 -150.995,-9.398 -147.682,-10.403C-146.678,-10.715 -145.683,-11.028 -144.675,-11.353C-142.168,-12.158 -139.669,-13.007 -137.194,-13.884C-136.302,-14.209 -135.402,-14.51 -134.52,-14.84C-131.35,-16.012 -128.212,-17.245 -125.109,-18.556C-124.291,-18.887 -123.491,-19.26 -122.676,-19.608C-120.289,-20.643 -117.924,-21.713 -115.575,-22.819C-114.538,-23.312 -113.501,-23.805 -112.473,-24.304C-109.932,-25.555 -107.415,-26.836 -104.926,-28.177C-104.379,-28.466 -103.822,-28.736 -103.281,-29.031C-100.401,-30.6 -97.566,-32.248 -94.761,-33.931C-93.739,-34.545 -92.729,-35.176 -91.719,-35.795C-89.731,-37.034 -87.759,-38.303 -85.808,-39.589C-84.846,-40.233 -83.878,-40.846 -82.931,-41.495C-80.282,-43.3 -77.672,-45.157 -75.105,-47.057C-74.233,-47.701 -73.386,-48.381 -72.525,-49.042C-70.691,-50.443 -68.875,-51.868 -67.083,-53.323C-66.047,-54.153 -65.016,-54.995 -63.993,-55.861C-62.18,-57.382 -60.388,-58.939 -58.617,-60.521C-57.761,-61.278 -56.889,-62.03 -56.044,-62.805C-53.843,-64.82 -51.696,-66.883 -49.574,-68.981C-48.591,-69.949 -47.626,-70.935 -46.657,-71.921C-45.22,-73.388 -43.811,-74.88 -42.409,-76.371C-41.475,-77.393 -40.524,-78.391 -39.602,-79.419C-37.554,-81.698 -35.543,-84.019 -33.582,-86.377C-32.756,-87.368 -31.965,-88.379 -31.156,-89.388C-29.857,-91.001 -28.579,-92.624 -27.326,-94.265C-26.418,-95.456 -25.519,-96.658 -24.632,-97.867C-23.408,-99.539 -22.212,-101.228 -21.03,-102.924C-20.146,-104.199 -19.26,-105.462 -18.399,-106.754C-16.86,-109.057 -15.363,-111.408 -13.896,-113.771C-13.108,-115.058 -12.342,-116.363 -11.572,-117.661C-10.604,-119.303 -9.654,-120.951 -8.719,-122.616C-7.979,-123.945 -7.233,-125.268 -6.521,-126.603C-5.168,-129.135 -3.857,-131.69 -2.589,-134.282C-2.514,-134.438 -2.432,-134.589 -2.354,-134.75C-1.737,-136.248 -0.962,-138.01 0,-139.97" style="fill:rgb(7,29,61);fill-rule:nonzero"></path>
            </g>
            <g transform="matrix(1,0,0,1,295.152,164.035)">
                <path d="M0,127.209C9.976,83.777 31.974,44.952 62.433,14.484C83.592,-6.676 108.778,-23.776 136.738,-35.598C164.701,-47.432 195.445,-53.974 227.717,-53.974C323.365,-53.974 405.544,3.516 441.712,85.798C443.643,85.593 445.561,85.395 447.454,85.196C445.519,80.705 443.429,76.31 441.237,71.968C440.624,70.771 440.02,69.569 439.395,68.378C438.463,66.617 437.516,64.867 436.541,63.135C435.886,61.956 435.206,60.79 434.526,59.629C432.335,55.865 430.047,52.149 427.657,48.505C427.398,48.108 427.146,47.693 426.879,47.297C425.808,45.679 424.687,44.104 423.571,42.51C422.757,41.344 421.938,40.184 421.101,39.035C419.981,37.496 418.839,35.974 417.685,34.459C416.782,33.281 415.859,32.12 414.937,30.972C413.331,28.945 411.698,26.949 410.03,24.982C408.617,23.323 407.201,21.657 405.746,20.034C404.562,18.729 403.355,17.448 402.146,16.162C401.035,14.977 399.922,13.798 398.786,12.638C397.565,11.387 396.336,10.149 395.091,8.928C393.835,7.695 392.56,6.493 391.275,5.296C390.062,4.148 388.855,2.999 387.617,1.881C385.419,-0.091 383.183,-2.028 380.915,-3.928C379.722,-4.914 378.511,-5.876 377.308,-6.844C375.831,-8.022 374.353,-9.195 372.852,-10.344C371.619,-11.288 370.39,-12.214 369.139,-13.134C367.416,-14.408 365.666,-15.635 363.917,-16.85C362.889,-17.565 361.881,-18.293 360.842,-18.996C358.204,-20.77 355.525,-22.472 352.812,-24.144C351.675,-24.84 350.517,-25.508 349.365,-26.194C347.511,-27.3 345.634,-28.371 343.749,-29.423C342.562,-30.084 341.368,-30.745 340.168,-31.389C337.923,-32.585 335.649,-33.74 333.365,-34.871C332.565,-35.267 331.786,-35.676 330.983,-36.061C327.986,-37.504 324.947,-38.863 321.887,-40.18C320.807,-40.637 319.716,-41.076 318.633,-41.527C316.411,-42.435 314.181,-43.318 311.935,-44.16C310.805,-44.587 309.68,-45.014 308.54,-45.423C305.757,-46.421 302.957,-47.371 300.125,-48.267C299.614,-48.43 299.103,-48.61 298.595,-48.778C295.285,-49.801 291.941,-50.732 288.574,-51.617C287.534,-51.893 286.488,-52.139 285.438,-52.398C282.934,-53.023 280.418,-53.606 277.88,-54.148C276.789,-54.382 275.707,-54.611 274.612,-54.833C271.348,-55.483 268.064,-56.078 264.757,-56.589C264.51,-56.631 264.275,-56.679 264.029,-56.715C260.491,-57.257 256.916,-57.689 253.326,-58.074C252.266,-58.194 251.204,-58.272 250.146,-58.381C247.454,-58.633 244.752,-58.838 242.031,-58.988C240.949,-59.061 239.86,-59.126 238.774,-59.181C235.104,-59.343 231.418,-59.451 227.708,-59.451C95.613,-59.427 -11.476,47.634 -11.476,179.744C-11.476,182.065 -11.367,184.356 -11.301,186.66C-9.774,182.907 -7.907,179.27 -5.883,175.709C-5.592,159.065 -3.59,142.837 0,127.209" style="fill:rgb(7,29,61);fill-rule:nonzero"></path>
            </g>
            <g transform="matrix(1,0,0,1,548.836,230.933)">
                <path d="M0,-41.194L43.255,-45.924C44.364,-46.046 45.375,-47.062 45.513,-48.195L48.513,-72.835C48.65,-73.968 47.864,-74.788 46.754,-74.667L-9.825,-68.48C-10.703,-68.383 -11.588,-67.923 -12.272,-67.207L-30.131,-48.528L-43.861,-63.753C-44.388,-64.337 -45.183,-64.612 -46.061,-64.517L-98.411,-58.792C-99.291,-58.696 -100.178,-58.235 -100.862,-57.516L-117.716,-39.843C-118.355,-39.172 -118.769,-38.33 -118.872,-37.491L-127.289,31.64C-127.426,32.773 -126.64,33.594 -125.53,33.472L-101.411,30.834C-100.303,30.713 -99.291,29.697 -99.153,28.563L-92.344,-27.367C-92.116,-29.236 -90.449,-30.913 -88.619,-31.113L-62.924,-33.923C-61.095,-34.123 -59.796,-32.77 -60.023,-30.901L-66.834,25.029C-66.972,26.162 -66.185,26.982 -65.075,26.861L-40.957,24.223C-39.848,24.102 -38.837,23.085 -38.699,21.952L-36.766,6.072L-23.044,21.262C-22.518,21.845 -21.723,22.12 -20.845,22.024L35.735,15.837C36.844,15.716 37.855,14.699 37.993,13.566L40.993,-11.074C41.131,-12.207 40.344,-13.027 39.234,-12.906L-4.02,-8.176C-5.849,-7.976 -7.148,-9.329 -6.921,-11.198L-3.725,-37.447C-3.497,-39.317 -1.829,-40.994 0,-41.194" style="fill:rgb(7,29,61);fill-rule:nonzero"></path>
            </g>
        </g>
    </g>
</svg>
